<svg width="25" height="21" viewBox="0 0 25 21" fill="none" xmlns="http://www.w3.org/2000/svg">
<path fill-rule="evenodd" clip-rule="evenodd" d="M3.25541 7.24817C2.25464 7.24817 1.44336 8.05945 1.44336 9.06021V15.7044C1.44336 16.7052 2.25464 17.5164 3.25541 17.5164H21.9799C22.9807 17.5164 23.7919 16.7052 23.7919 15.7044V9.06022C23.7919 8.05945 22.9807 7.24817 21.9799 7.24817H3.25541ZM5.67101 14.4964C6.67178 14.4964 7.48306 13.6851 7.48306 12.6844C7.48306 11.6836 6.67178 10.8723 5.67101 10.8723C4.67025 10.8723 3.85896 11.6836 3.85896 12.6844C3.85896 13.6851 4.67025 14.4964 5.67101 14.4964ZM19.5634 14.4964C20.5641 14.4964 21.3754 13.6851 21.3754 12.6844C21.3754 11.6836 20.5641 10.8723 19.5634 10.8723C18.5626 10.8723 17.7513 11.6836 17.7513 12.6844C17.7513 13.6851 18.5626 14.4964 19.5634 14.4964Z" fill="white"/>
<rect x="3.85938" y="16.3085" width="3.62409" height="4.22811" rx="1.20803" fill="white"/>
<rect x="17.1475" y="16.3085" width="3.62409" height="4.22811" rx="1.20803" fill="white"/>
<mask id="mask0_2346_4539" style="mask-type:alpha" maskUnits="userSpaceOnUse" x="1" y="0" width="23" height="16">
<path d="M7.49192 1.20803H17.7582C18.83 1.20803 19.7737 1.91413 20.0761 2.94236L22.4916 11.1552C22.9433 12.6908 21.8038 14.2333 20.2032 14.2528L5.09917 14.437C3.47927 14.4567 2.29929 12.908 2.7483 11.3515L5.17051 2.95446C5.46886 1.92018 6.41547 1.20803 7.49192 1.20803Z" stroke="black" stroke-width="2.41606"/>
</mask>
<g mask="url(#mask0_2346_4539)">
<rect x="-0.972656" width="25.9727" height="10.2683" fill="white"/>
</g>
</svg>
